# xmcd
#
# Track frame offsets: 
#        150
#        12270
#        22350
#        48587
#        74357
#        89762
#        96822
#        122610
#        132110
#        157185
#        162965
#        190050
#
# Disc length: 2600 seconds
#
# Revision: 3
# Processed by: cddbd v1.5.2PL0 Copyright (c) Steve Scherf et al.
# Submitted via: ExactAudioCopyFreeDBPlugin 1.0
#
DISCID=a70a260c
DTITLE=Teddy Pendergrass - Live!  Coast to Coast
DYEAR=1994
DGENRE=SMB
TTITLE0=L.A. Rap
TTITLE1=Come Go with Me
TTITLE2=Close the Door
TTITLE3=Turn Off the Lights
TTITLE4=Do Me
TTITLE5=live interview #1
TTITLE6=Where Did All the Love Go
TTITLE7=live interview #2
TTITLE8=It's You I Love
TTITLE9=live interview #3
TTITLE10=Shout and Scream
TTITLE11=live interview #4 concludes
EXTD=
EXTT0=
EXTT1=
EXTT2=
EXTT3=
EXTT4=
EXTT5=
EXTT6=
EXTT7=
EXTT8=
EXTT9=
EXTT10=
EXTT11=
PLAYORDER=
